<svg xmlns="http://www.w3.org/2000/svg" viewBox="0 0 24 24">
  <path fill="currentColor" d="M12,2C8,2 4,3.5 4,6V15.5C4,17.43 4.84,18.86 6,19.67V21C6,21.55 6.45,22 7,22H8C8.55,22 9,21.55 9,21V20H15V21C15,21.55 15.45,22 16,22H17C17.55,22 18,21.55 18,21V19.67C19.16,18.86 20,17.43 20,15.5V6C20,3.5 16,2 12,2M7.5,17A1.5,1.5 0 0,1 6,15.5A1.5,1.5 0 0,1 7.5,14A1.5,1.5 0 0,1 9,15.5A1.5,1.5 0 0,1 7.5,17M16.5,17A1.5,1.5 0 0,1 15,15.5A1.5,1.5 0 0,1 16.5,14A1.5,1.5 0 0,1 18,15.5A1.5,1.5 0 0,1 16.5,17M6,8V6H18V8H6Z" />
</svg>
